<?xml version="1.0" encoding="UTF-8" standalone="no"?>
<!-- Created with matplotlib (https://matplotlib.org/) -->

<svg
   height="165.3075pt"
   version="1.1"
   viewBox="0 0 268.2225 165.3075"
   width="268.2225pt"
   id="svg498"
   sodipodi:docname="opt-results.svg"
   inkscape:version="1.2.2 (1:1.2.2+202212051550+b0a8486541)"
   xmlns:inkscape="http://www.inkscape.org/namespaces/inkscape"
   xmlns:sodipodi="http://sodipodi.sourceforge.net/DTD/sodipodi-0.dtd"
   xmlns:xlink="http://www.w3.org/1999/xlink"
   xmlns="http://www.w3.org/2000/svg"
   xmlns:svg="http://www.w3.org/2000/svg">
  <sodipodi:namedview
     id="namedview500"
     pagecolor="#ffffff"
     bordercolor="#000000"
     borderopacity="0.25"
     inkscape:showpageshadow="2"
     inkscape:pageopacity="0.0"
     inkscape:pagecheckerboard="0"
     inkscape:deskcolor="#d1d1d1"
     inkscape:document-units="pt"
     showgrid="false"
     inkscape:zoom="2.0612549"
     inkscape:cx="155.00266"
     inkscape:cy="106.48853"
     inkscape:window-width="1920"
     inkscape:window-height="976"
     inkscape:window-x="0"
     inkscape:window-y="27"
     inkscape:window-maximized="1"
     inkscape:current-layer="figure_1" />
  <defs
     id="defs4">
    <style
       type="text/css"
       id="style2">
*{stroke-linecap:butt;stroke-linejoin:round;}
  </style>
  </defs>
  <g
     id="figure_1"
     transform="translate(-9.8887507,-5.0452056)">
    <g
       id="patch_1"
       transform="matrix(0.93132812,0,0,0.91837501,9.8887507,5.0452056)">
      <path
         d="M 0,180 H 288 V 0 H 0 Z"
         style="fill:#ffffff"
         id="path6" />
    </g>
    <g
       id="axes_1">
      <g
         id="patch_2">
        <path
           d="M 41.43125,138.92875 H 236.68 V 10.8 H 41.43125 Z"
           style="fill:#ffffff"
           id="path9" />
      </g>
      <g
         id="matplotlib.axis_1">
        <g
           id="xtick_1">
          <g
             id="line2d_1">
            <path
               clip-path="url(#pcb0e30eda1)"
               d="M 78.33233,138.92875 V 10.8"
               style="fill:none;stroke:#b0b0b0;stroke-width:0.8;stroke-linecap:square"
               id="path12" />
          </g>
          <g
             id="line2d_2">
            <defs
               id="defs16">
              <path
                 d="M 0,0 V 3.5"
                 id="me82ebc4d0e"
                 style="stroke:#000000;stroke-width:0.8" />
            </defs>
            <g
               id="g20">
              <use
                 style="stroke:#000000;stroke-width:0.8"
                 x="78.332329"
                 xlink:href="#me82ebc4d0e"
                 y="138.92876"
                 id="use18" />
            </g>
          </g>
          <g
             id="text_1">
            <!-- 0.02 -->
            <defs
               id="defs26">
              <path
                 d="M 47.59375,17.796875 Q 35.203125,-1.40625 25,-1.40625 q -10.203125,0 -16.40625,9.796875 -6.1875,9.8125 -6.1875,25.203125 0,14.5 6.1875,24.25 6.203125,9.75 16.8125,9.75 9.796875,0 15.984375,-9.59375 6.203125,-9.59375 6.203125,-25 0,-15.203125 -12.390625,-34.40625 z M 25.09375,65 Q 12,65 12,32.703125 q 0,-31.5 13,-31.5 13,0 13,31.59375 Q 38,48.5 34.703125,56.75 31.40625,65 25.09375,65 Z"
                 id="FreeSerif-48" />
              <path
                 d="m 12.5,10 q 2.296875,0 3.9375,-1.703125 1.65625,-1.703125 1.65625,-4 0,-2.203125 -1.703125,-3.796875 -1.6875,-1.59375 -3.984375,-1.59375 -2.203125,0 -3.8125,1.59375 Q 7,2.09375 7,4.296875 q 0,2.296875 1.640625,4 Q 10.296875,10 12.5,10 Z"
                 id="FreeSerif-46" />
              <path
                 d="m 3.09375,47.703125 q 0.5,2.296875 1,4 0.5,1.703125 2.15625,4.953125 1.65625,3.25 3.703125,5.390625 2.046875,2.15625 5.6875,3.84375 3.65625,1.703125 8.265625,1.703125 7.796875,0 13.140625,-5.09375 5.359375,-5.09375 5.359375,-12.59375 0,-11.3125 -12.8125,-24.703125 L 12.796875,7.59375 h 23.90625 q 3.390625,0 5.046875,1.15625 1.65625,1.15625 4.453125,5.453125 L 47.5,13.703125 42,0 H 3 V 1.203125 L 20.796875,20.09375 q 13,13.8125 13,26 0,6.3125 -3.90625,10.203125 Q 26,60.203125 19.703125,60.203125 14.5,60.203125 11.34375,57.34375 8.203125,54.5 5.203125,47.203125 Z"
                 id="FreeSerif-50" />
            </defs>
            <g
               transform="matrix(0.1,0,0,-0.1,69.58233,152.75844)"
               id="g36">
              <use
                 xlink:href="#FreeSerif-48"
                 id="use28" />
              <use
                 x="49.999985"
                 xlink:href="#FreeSerif-46"
                 id="use30" />
              <use
                 x="74.999969"
                 xlink:href="#FreeSerif-48"
                 id="use32" />
              <use
                 x="124.99995"
                 xlink:href="#FreeSerif-50"
                 id="use34" />
            </g>
          </g>
        </g>
        <g
           id="xtick_2">
          <g
             id="line2d_3">
            <path
               clip-path="url(#pcb0e30eda1)"
               d="M 115.70051,138.92875 V 10.8"
               style="fill:none;stroke:#b0b0b0;stroke-width:0.8;stroke-linecap:square"
               id="path40" />
          </g>
          <g
             id="line2d_4">
            <g
               id="g45">
              <use
                 style="stroke:#000000;stroke-width:0.8"
                 x="115.70051"
                 xlink:href="#me82ebc4d0e"
                 y="138.92876"
                 id="use43" />
            </g>
          </g>
          <g
             id="text_2">
            <!-- 0.04 -->
            <defs
               id="defs49">
              <path
                 d="M 47.203125,23.09375 V 16.703125 H 37 V 0 H 29.296875 V 16.703125 H 1.203125 v 6.390625 l 31.390625,44.5 H 37 v -44.5 z m -18,0 v 34.3125 l -24,-34.3125 z"
                 id="FreeSerif-52" />
            </defs>
            <g
               transform="matrix(0.1,0,0,-0.1,106.95051,152.75844)"
               id="g59">
              <use
                 xlink:href="#FreeSerif-48"
                 id="use51" />
              <use
                 x="49.999985"
                 xlink:href="#FreeSerif-46"
                 id="use53" />
              <use
                 x="74.999969"
                 xlink:href="#FreeSerif-48"
                 id="use55" />
              <use
                 x="124.99995"
                 xlink:href="#FreeSerif-52"
                 id="use57" />
            </g>
          </g>
        </g>
        <g
           id="xtick_3">
          <g
             id="line2d_5">
            <path
               clip-path="url(#pcb0e30eda1)"
               d="M 153.06869,138.92875 V 10.8"
               style="fill:none;stroke:#b0b0b0;stroke-width:0.8;stroke-linecap:square"
               id="path63" />
          </g>
          <g
             id="line2d_6">
            <g
               id="g68">
              <use
                 style="stroke:#000000;stroke-width:0.8"
                 x="153.0687"
                 xlink:href="#me82ebc4d0e"
                 y="138.92876"
                 id="use66" />
            </g>
          </g>
          <g
             id="text_3">
            <!-- 0.06 -->
            <defs
               id="defs72">
              <path
                 d="m 25.796875,-1.40625 q -10.09375,0 -16.25,8.046875 -6.140625,8.0625 -6.140625,21.265625 0,4.09375 0.796875,8.4375 0.796875,4.359375 3.5,9.90625 2.703125,5.546875 7,9.9375 Q 19,60.59375 26.75,64.046875 34.5,67.5 44.59375,68.40625 l 0.203125,-1.609375 Q 33,64.90625 25.09375,57.25 17.203125,49.59375 15.203125,38.296875 19.90625,41.09375 22.296875,41.9375 24.703125,42.796875 28,42.796875 q 8.59375,0 13.6875,-5.65625 Q 46.796875,31.5 46.796875,21.90625 q 0,-10.3125 -5.859375,-16.8125 -5.84375,-6.5 -15.140625,-6.5 z m -1.59375,39.609375 q -6.796875,0 -9.15625,-3 -2.34375,-3 -2.34375,-8.90625 0,-11.59375 3.796875,-18.25 3.796875,-6.640625 10.40625,-6.640625 5.296875,0 8.09375,4.4375 2.796875,4.453125 2.796875,12.65625 0,9.40625 -3.546875,14.546875 -3.546875,5.15625 -10.046875,5.15625 z"
                 id="FreeSerif-54" />
            </defs>
            <g
               transform="matrix(0.1,0,0,-0.1,144.31869,152.75844)"
               id="g82">
              <use
                 xlink:href="#FreeSerif-48"
                 id="use74" />
              <use
                 x="49.999985"
                 xlink:href="#FreeSerif-46"
                 id="use76" />
              <use
                 x="74.999969"
                 xlink:href="#FreeSerif-48"
                 id="use78" />
              <use
                 x="124.99995"
                 xlink:href="#FreeSerif-54"
                 id="use80" />
            </g>
          </g>
        </g>
        <g
           id="xtick_4">
          <g
             id="line2d_7">
            <path
               clip-path="url(#pcb0e30eda1)"
               d="M 190.43687,138.92875 V 10.8"
               style="fill:none;stroke:#b0b0b0;stroke-width:0.8;stroke-linecap:square"
               id="path86" />
          </g>
          <g
             id="line2d_8">
            <g
               id="g91">
              <use
                 style="stroke:#000000;stroke-width:0.8"
                 x="190.43687"
                 xlink:href="#me82ebc4d0e"
                 y="138.92876"
                 id="use89" />
            </g>
          </g>
          <g
             id="text_4">
            <!-- 0.08 -->
            <defs
               id="defs95">
              <path
                 d="m 29,37.09375 q 9,-6.6875 12.25,-11.25 Q 44.5,21.296875 44.5,15.5 q 0,-7.703125 -5.359375,-12.3125 -5.34375,-4.59375 -14.34375,-4.59375 -8.5,0 -13.859375,4.59375 -5.34375,4.609375 -5.34375,11.90625 0,5.109375 2.453125,8.546875 Q 10.5,27.09375 18.59375,33.203125 10.703125,40.09375 8.453125,43.5 q -2.25,3.40625 -2.25,8.296875 0,6.796875 5.390625,11.296875 5.40625,4.5 13.609375,4.5 7.5,0 12.34375,-4 4.859375,-4 4.859375,-10.1875 0,-5.109375 -3,-8.71875 -3,-3.59375 -10.40625,-7.59375 z m -7.796875,-5.890625 q -4.40625,-3.5 -6.203125,-7 -1.796875,-3.5 -1.796875,-8.296875 0,-6.5 3.5,-10.5 3.5,-4 9.203125,-4 4.890625,0 7.9375,3.046875 3.0625,3.046875 3.0625,7.953125 0,1.59375 -0.359375,2.984375 -0.34375,1.40625 -0.703125,2.453125 Q 35.5,18.90625 34.453125,20.203125 33.40625,21.5 32.75,22.25 32.09375,23 30.390625,24.390625 q -1.6875,1.40625 -2.546875,2 Q 27,27 24.640625,28.703125 q -2.34375,1.703125 -3.4375,2.5 z m 4.890625,7.703125 q 0.109375,0.09375 1.359375,0.9375 1.25,0.859375 1.796875,1.359375 0.546875,0.5 1.6875,1.546875 1.15625,1.046875 1.75,2 0.609375,0.953125 1.359375,2.296875 0.75,1.359375 1.09375,3 Q 35.5,51.703125 35.5,53.5 q 0,5.203125 -3,8.25 -3,3.046875 -8.09375,3.046875 -4.703125,0 -7.765625,-2.796875 -3.046875,-2.796875 -3.046875,-7.09375 0,-4.203125 2.90625,-7.90625 2.90625,-3.703125 9.59375,-8.09375 z"
                 id="FreeSerif-56" />
            </defs>
            <g
               transform="matrix(0.1,0,0,-0.1,181.68687,152.75844)"
               id="g105">
              <use
                 xlink:href="#FreeSerif-48"
                 id="use97" />
              <use
                 x="49.999985"
                 xlink:href="#FreeSerif-46"
                 id="use99" />
              <use
                 x="74.999969"
                 xlink:href="#FreeSerif-48"
                 id="use101" />
              <use
                 x="124.99995"
                 xlink:href="#FreeSerif-56"
                 id="use103" />
            </g>
          </g>
        </g>
        <g
           id="xtick_5">
          <g
             id="line2d_9">
            <path
               clip-path="url(#pcb0e30eda1)"
               d="M 227.80506,138.92875 V 10.8"
               style="fill:none;stroke:#b0b0b0;stroke-width:0.8;stroke-linecap:square"
               id="path109" />
          </g>
          <g
             id="line2d_10">
            <g
               id="g114">
              <use
                 style="stroke:#000000;stroke-width:0.8"
                 x="227.80505"
                 xlink:href="#me82ebc4d0e"
                 y="138.92876"
                 id="use112" />
            </g>
          </g>
          <g
             id="text_5">
            <!-- 0.10 -->
            <defs
               id="defs118">
              <path
                 d="m 18.296875,59.296875 q -1.796875,0 -7.203125,-2.203125 V 58.5 l 18,9.09375 0.8125,-0.1875 v -60 q 0,-3.609375 1.796875,-4.71875 Q 33.5,1.59375 39.40625,1.5 V 0 H 11.796875 v 1.5 q 5.609375,0.203125 7.546875,1.640625 1.953125,1.453125 1.953125,6.15625 V 54.59375 q 0,4.703125 -3,4.703125 z"
                 id="FreeSerif-49" />
            </defs>
            <g
               transform="matrix(0.1,0,0,-0.1,219.05506,152.75844)"
               id="g128">
              <use
                 xlink:href="#FreeSerif-48"
                 id="use120" />
              <use
                 x="49.999985"
                 xlink:href="#FreeSerif-46"
                 id="use122" />
              <use
                 x="74.999969"
                 xlink:href="#FreeSerif-49"
                 id="use124" />
              <use
                 x="124.99995"
                 xlink:href="#FreeSerif-48"
                 id="use126" />
            </g>
          </g>
        </g>
        <g
           id="text_6">
          <!-- Ergodicity Upper Bound -->
          <defs
             id="defs148">
            <path
               d="m 20.40625,8 q 0,-2.90625 1.640625,-3.609375 1.65625,-0.6875 8.859375,-0.6875 h 2.6875 q 10.703125,0 15.296875,2.546875 4.609375,2.546875 8.3125,10.65625 H 60 L 55.5,0 H 1.5 V 1.90625 Q 7,2.296875 8.59375,3.9375 q 1.609375,1.65625 1.609375,6.96875 v 44.390625 q 0,5.296875 -1.609375,6.953125 Q 7,63.90625 1.5,64.296875 v 1.90625 h 53.09375 l 0.3125,-14.296875 h -2.5 q -1.3125,6.6875 -4.015625,8.59375 -2.6875,1.90625 -11.1875,1.90625 h -13.5 q -2,0 -2.65625,-0.65625 Q 20.40625,61.09375 20.40625,59 V 36.796875 h 15.390625 q 6.40625,0 8.25,1.953125 1.859375,1.953125 2.75,7.546875 H 49.09375 V 23.09375 h -2.296875 q -1,6.203125 -2.90625,7.90625 Q 42,32.703125 35.796875,32.703125 H 20.40625 Z"
               id="FreeSerif-69" />
            <path
               d="m 30.09375,36.203125 q -1.5,0 -3.703125,1.75 -2.1875,1.75 -2.890625,1.75 -2,0 -4.5,-2.90625 Q 16.5,33.90625 16.5,31.5 V 9 Q 16.5,4.703125 18.203125,3.203125 19.90625,1.703125 25,1.5 V 0 H 1 v 1.5 q 4.796875,0.90625 5.9375,2 1.15625,1.09375 1.15625,4.90625 v 25 q 0,3.296875 -0.75,4.640625 -0.75,1.359375 -2.640625,1.359375 -1.609375,0 -3.5,-0.40625 v 1.59375 Q 9.203125,43.203125 16,46 l 0.5,-0.203125 V 36.59375 q 3.703125,5.3125 6.296875,7.359375 Q 25.40625,46 28.5,46 31.09375,46 32.546875,44.59375 34,43.203125 34,40.703125 q 0,-2.109375 -1.046875,-3.3125 -1.046875,-1.1875 -2.859375,-1.1875 z"
               id="FreeSerif-114" />
            <path
               d="m 6,5.40625 q 0,1.890625 1.34375,3.484375 1.359375,1.609375 7.5625,7.40625 -5,2.5 -7.15625,5.59375 Q 5.59375,25 5.59375,29.703125 5.59375,36.5 10.4375,41.25 15.296875,46 22.296875,46 q 3.90625,0 8.34375,-1.65625 Q 35.09375,42.703125 38,42.703125 h 7.703125 v -3.90625 H 37.40625 Q 39.296875,34.5 39.296875,30.40625 39.296875,23.5 34.640625,19.203125 30,14.90625 23.703125,14.90625 22.5,14.90625 18,15.40625 16,14.796875 14,12.6875 12,10.59375 12,9.09375 12,6.703125 19.796875,6.40625 L 32.703125,5.796875 Q 38.203125,5.59375 41.5,2.6875 q 3.296875,-2.890625 3.296875,-7.59375 0,-7.1875 -8.25,-12.03125 -8.25,-4.859375 -17.75,-4.859375 -7.09375,0 -12.203125,2.859375 Q 1.5,-16.09375 1.5,-12.09375 q 0,2.796875 2.25,5.546875 2.25,2.75 7.546875,6.640625 -3.09375,1.5 -4.203125,2.59375 Q 6,3.796875 6,5.40625 Z m 7.40625,-5.609375 Q 10.296875,-3.90625 9.390625,-5.5 8.5,-7.09375 8.5,-8.796875 q 0,-3.296875 4,-5.296875 4,-2 10.59375,-2 8.5,0 13.703125,2.703125 Q 42,-10.703125 42,-6.40625 42,-3.703125 39.203125,-2.59375 36.40625,-1.5 29.59375,-1.5 19.5,-1.5 13.40625,-0.203125 Z M 31.59375,26.5 q 0,1.703125 -0.40625,4.09375 -0.390625,2.40625 -1.390625,5.453125 -1,3.046875 -3.203125,5.09375 -2.1875,2.0625 -5.296875,2.0625 -3.5,0 -5.453125,-2.5 -1.9375,-2.5 -1.9375,-6.90625 0,-8.59375 3.1875,-12.5 3.203125,-3.890625 7,-3.890625 3.5,0 5.5,2.4375 2,2.453125 2,6.65625 z"
               id="FreeSerif-103" />
            <path
               d="M 24.59375,46 Q 34.203125,46 40.390625,39.59375 46.59375,33.203125 46.59375,23.40625 46.59375,13 40.1875,6 33.796875,-1 24.390625,-1 15,-1 8.75,5.75 2.5,12.5 2.5,22.59375 2.5,32.90625 8.640625,39.453125 14.796875,46 24.59375,46 Z M 11.5,27.5 q 0,-10.703125 3.890625,-18.203125 3.90625,-7.5 10.203125,-7.5 5.609375,0 8.796875,4.796875 3.203125,4.8125 3.203125,13.3125 0,10.296875 -4,16.796875 -4,6.5 -10.296875,6.5 Q 18,43.203125 14.75,38.890625 11.5,34.59375 11.5,27.5 Z"
               id="FreeSerif-111" />
            <path
               d="m 34.203125,-1 -0.40625,0.296875 v 6.40625 Q 29,-1 21,-1 12.703125,-1 7.59375,4.953125 2.5,10.90625 2.5,20.5 2.5,31.09375 8.59375,38.546875 14.703125,46 23.296875,46 q 5.40625,0 10.5,-4.296875 v 15.59375 q 0,3.109375 -0.90625,4.109375 -0.890625,1 -3.6875,1 -1.40625,0 -2.203125,-0.109375 v 1.609375 q 9.09375,2.390625 14.703125,4.390625 l 0.5,-0.203125 v -56.6875 q 0,-3.5 0.84375,-4.609375 0.859375,-1.09375 3.546875,-1.09375 0.5,0 2.3125,0.09375 V 4.203125 Z M 24.90625,4.203125 q 3.796875,0 6.34375,2.140625 2.546875,2.15625 2.546875,3.859375 v 23 q 0,4 -3.109375,7 -3.09375,3 -7.09375,3 -5.6875,0 -9.09375,-5.109375 Q 11.09375,33 11.09375,24.5 q 0,-9.203125 3.796875,-14.75 3.8125,-5.546875 10.015625,-5.546875 z"
               id="FreeSerif-100" />
            <path
               d="M 6.203125,39.296875 Q 4,39.296875 2,39 v 1.5 q 7,2 15.5,5.5 l 0.40625,-0.296875 v -35.5 q 0,-5.40625 1.25,-6.859375 1.25,-1.4375 6.140625,-1.84375 V 0 H 1.59375 V 1.5 Q 6.796875,1.796875 8.140625,3.296875 9.5,4.796875 9.5,10.203125 V 33.40625 Q 9.5,36.703125 8.75,38 8,39.296875 6.203125,39.296875 Z m 6.59375,29 q 2.203125,0 3.703125,-1.5 1.5,-1.5 1.5,-3.59375 Q 18,61 16.5,59.546875 15,58.09375 12.796875,58.09375 q -2.09375,0 -3.546875,1.5 -1.453125,1.5 -1.453125,3.59375 0,2.109375 1.5,3.609375 1.5,1.5 3.5,1.5 z"
               id="FreeSerif-105" />
            <path
               d="M 2.5,21.296875 Q 2.5,32.40625 9.046875,39.203125 15.59375,46 24.40625,46 30.703125,46 35.25,42.953125 q 4.546875,-3.046875 4.546875,-7.25 Q 39.796875,34 38.390625,32.75 37,31.5 35,31.5 q -3.40625,0 -4.703125,4.59375 l -0.59375,2.203125 q -0.796875,2.796875 -2,3.796875 -1.203125,1 -3.90625,1 -6.09375,0 -9.84375,-4.84375 -3.75,-4.84375 -3.75,-12.546875 0,-8.609375 4.34375,-14.0625 4.359375,-5.4375 11.15625,-5.4375 4.296875,0 7.390625,2.046875 3.109375,2.046875 6.703125,7.34375 l 1.40625,-0.890625 q -1,-2 -1.75,-3.3125 Q 38.703125,10.09375 36.75,7.5 34.796875,4.90625 32.890625,3.296875 31,1.703125 27.890625,0.34375 24.796875,-1 21.5,-1 13.203125,-1 7.84375,5.25 2.5,11.5 2.5,21.296875 Z"
               id="FreeSerif-99" />
            <path
               d="M 25.90625,45 V 41.796875 H 15.796875 V 13.203125 Q 15.796875,8.5 17,6.34375 q 1.203125,-2.140625 4,-2.140625 3.09375,0 6,3.5 L 28.296875,6.59375 Q 23.5,-1 16.296875,-1 7.40625,-1 7.40625,11.703125 v 30.09375 H 2.09375 Q 1.703125,42.09375 1.703125,42.5 q 0,0.5 0.296875,0.796875 0.296875,0.296875 1.140625,0.84375 0.859375,0.5625 2.0625,1.5 Q 6.40625,46.59375 8.5,49.09375 q 2.09375,2.5 4.59375,6 1.609375,2.3125 2,2.8125 0.703125,0 0.703125,-1.3125 V 45 Z"
               id="FreeSerif-116" />
            <path
               d="m 14.203125,-13.40625 q 2.796875,0 5.890625,6.203125 Q 23.203125,-1 23.203125,1.90625 q 0,1.296875 -4.40625,10.09375 L 5.59375,40.40625 Q 4.40625,43 0.5,43.59375 V 45 h 20.59375 v -1.5 q -3.1875,-0.09375 -4.5,-0.703125 -1.296875,-0.59375 -1.296875,-2 0,-1.5 1,-3.796875 l 11.5,-25.296875 L 37.5,39.296875 q 0.40625,0.90625 0.40625,1.703125 0,2.5 -4.8125,2.5 V 45 h 13.5 V 43.5 Q 44.796875,43.296875 43.75,42.34375 42.703125,41.40625 41.796875,39 L 26.40625,-1.796875 q -4,-10.796875 -7.953125,-15.390625 Q 14.5,-21.796875 9.5,-21.796875 q -3.203125,0 -5.3125,1.65625 Q 2.09375,-18.5 2.09375,-16 q 0,1.796875 1.296875,3.109375 1.3125,1.296875 3.015625,1.296875 2.1875,0 4.6875,-0.90625 2.5,-0.90625 3.109375,-0.90625 z"
               id="FreeSerif-121" />
            <path
               id="FreeSerif-32"
               d="" />
            <path
               d="m 20.703125,23.296875 q 0,-10 3.75,-15.15625 Q 28.203125,3 37.90625,3 43.5,3 48,5.140625 q 4.5,2.15625 6.5,5.765625 2.296875,4.296875 2.296875,13.59375 v 27 q 0,7.5 -1.796875,9.953125 -1.796875,2.453125 -7.59375,2.84375 v 1.90625 h 23.1875 v -1.90625 q -6.1875,-0.796875 -7.796875,-3 Q 61.203125,59.09375 61.203125,51.5 V 25.40625 q 0,-5.90625 -1.0625,-10.3125 Q 59.09375,10.703125 56.4375,6.75 53.796875,2.796875 48.546875,0.6875 q -5.25,-2.09375 -12.953125,-2.09375 -12.796875,0 -18.953125,6.25 Q 10.5,11.09375 10.5,24.09375 v 31.203125 q 0,5.5 -1.546875,7 -1.546875,1.5 -7.453125,2 v 1.90625 h 28.296875 v -1.90625 q -6,-0.5 -7.546875,-2.046875 -1.546875,-1.546875 -1.546875,-6.953125 z"
               id="FreeSerif-85" />
            <path
               d="M 1.40625,39.296875 V 40.90625 Q 7.703125,42.796875 15.796875,46 L 16.40625,45.796875 V 38.09375 Q 22.796875,46 30.796875,46 q 7.296875,0 12,-6 Q 47.5,34 47.5,24.703125 47.5,13.796875 41.453125,6.390625 35.40625,-1 26.5,-1 23.296875,-1 21.140625,-0.09375 19,0.796875 16.40625,3.296875 V -12.40625 q 0,-4.6875 1.59375,-6.03125 1.59375,-1.359375 7.203125,-1.46875 v -1.796875 H 1 V -20 q 4.40625,0.40625 5.703125,1.703125 Q 8,-17 8,-13.09375 v 46.796875 q 0,3.5 -0.796875,4.59375 -0.796875,1.109375 -3.296875,1.109375 -1.609375,0 -2.5,-0.109375 z m 15,-5.890625 V 8.796875 q 0,-2.203125 3.4375,-4.40625 3.453125,-2.1875 6.953125,-2.1875 5.40625,0 8.75,5.140625 Q 38.90625,12.5 38.90625,20.796875 38.90625,29.5 35.546875,34.75 32.203125,40 26.59375,40 23.09375,40 19.75,37.796875 16.40625,35.59375 16.40625,33.40625 Z"
               id="FreeSerif-112" />
            <path
               d="M 9.703125,27.703125 Q 9.90625,21.40625 11.40625,16.84375 q 1.5,-4.546875 3.890625,-6.796875 2.40625,-2.25 4.84375,-3.203125 2.453125,-0.9375 5.15625,-0.9375 4.796875,0 8.34375,2.390625 3.5625,2.40625 7.15625,8.109375 L 42.40625,15.703125 Q 39.296875,7.59375 33.796875,3.296875 28.296875,-1 21.203125,-1 12.59375,-1 7.546875,5.046875 2.5,11.09375 2.5,21.40625 2.5,32.5 8.34375,39.25 14.203125,46 23.40625,46 31,46 35.203125,41.453125 39.40625,36.90625 40.5,27.703125 Z M 9.90625,30.90625 h 20.390625 q -1,6.5 -3.109375,9 -2.09375,2.5 -6.6875,2.5 -9,0 -10.59375,-11.5 z"
               id="FreeSerif-101" />
            <path
               d="M 59.09375,18 Q 59.09375,15 58,12.09375 56.90625,9.203125 54.34375,6.34375 51.796875,3.5 46.796875,1.75 41.796875,0 34.90625,0 H 1.5 v 1.90625 q 6.203125,0.1875 7.890625,1.78125 1.703125,1.609375 1.703125,7.21875 v 44.390625 q 0,5.5 -1.65625,7.046875 -1.640625,1.5625 -7.9375,1.953125 v 1.90625 h 28 q 26.203125,0 26.203125,-17 0,-3.296875 -1.203125,-5.859375 -1.203125,-2.546875 -2.453125,-3.90625 -1.25,-1.34375 -3.859375,-2.546875 -2.59375,-1.1875 -3.296875,-1.34375 -0.6875,-0.140625 -2.890625,-0.75 2.296875,-0.59375 3.4375,-0.90625 1.15625,-0.296875 4.203125,-1.703125 3.0625,-1.390625 4.75,-3 1.703125,-1.59375 3.203125,-4.546875 1.5,-2.9375 1.5,-6.640625 z m -31.5,-14.296875 q 4.5,0 7.796875,0.59375 3.3125,0.609375 6.203125,2.046875 2.90625,1.453125 4.453125,4.34375 1.546875,2.90625 1.546875,7.21875 0,4.09375 -1.546875,6.9375 -1.546875,2.859375 -3.75,4.359375 -2.203125,1.5 -6.109375,2.296875 -3.890625,0.796875 -6.890625,0.9375 -3,0.15625 -8,0.15625 V 7.796875 q 0,-2.390625 1.296875,-3.25 1.3125,-0.84375 5,-0.84375 z M 21.296875,36.59375 h 9.5 q 7,0 10.84375,3.15625 Q 45.5,42.90625 45.5,48.796875 45.5,55.5 41,59 36.5,62.5 27.90625,62.5 H 23.5 q -2.203125,0 -2.203125,-3 z"
               id="FreeSerif-66" />
            <path
               d="M 48,5 V 3.59375 Q 40.203125,1.5 34.296875,-0.90625 L 33.90625,-0.703125 V 7.59375 Q 33.59375,7.296875 32.140625,5.796875 30.703125,4.296875 30.09375,3.75 29.5,3.203125 28.046875,2.046875 26.59375,0.90625 25.5,0.40625 24.40625,-0.09375 22.703125,-0.546875 21,-1 19.296875,-1 13.796875,-1 10.5,2.546875 7.203125,6.09375 7.203125,12 v 25.203125 q 0,3.5 -1.3125,4.84375 Q 4.59375,43.40625 1,43.59375 V 45 H 15.59375 V 12.40625 q 0,-3.109375 2.09375,-5.359375 2.109375,-2.25 5.015625,-2.25 1.09375,0 2.59375,0.296875 1.5,0.3125 3.453125,1.15625 1.953125,0.84375 3.296875,2.6875 1.359375,1.859375 1.359375,4.5625 V 37 q 0,3.703125 -1.359375,4.890625 Q 30.703125,43.09375 26,43.296875 V 45 H 41.796875 V 10.703125 q 0,-3.5 1.09375,-4.609375 Q 44,5 47.5,5 Z"
               id="FreeSerif-117" />
            <path
               d="M 1,39.796875 V 41.5 Q 8.40625,43.703125 14.796875,46 L 15.5,45.796875 V 37.90625 q 5.09375,4.796875 8.046875,6.4375 Q 26.5,46 30,46 35.5,46 38.640625,42.046875 41.796875,38.09375 41.796875,31 V 8.09375 q 0,-3.6875 1.203125,-4.9375 1.203125,-1.25 4.90625,-1.65625 V 0 h -20.8125 v 1.5 q 3.8125,0.296875 5.0625,2 1.25,1.703125 1.25,6.40625 v 20.890625 q 0,9.703125 -7.3125,9.703125 -2.5,0 -4.59375,-1.15625 -2.09375,-1.140625 -5.703125,-4.546875 V 6.703125 Q 15.796875,4 17.1875,2.890625 18.59375,1.796875 22.40625,1.5 V 0 H 1.203125 V 1.5 Q 5,1.796875 6.203125,3.25 7.40625,4.703125 7.40625,9 v 24.796875 q 0,3.703125 -0.8125,5.046875 -0.796875,1.359375 -2.890625,1.359375 -1.90625,0 -2.703125,-0.40625 z"
               id="FreeSerif-110" />
          </defs>
          <g
             transform="matrix(0.1,0,0,-0.1,90.185313,165.75844)"
             id="g194">
            <use
               xlink:href="#FreeSerif-69"
               id="use150" />
            <use
               x="60.999985"
               xlink:href="#FreeSerif-114"
               id="use152" />
            <use
               x="95.468719"
               xlink:href="#FreeSerif-103"
               id="use154" />
            <use
               x="142.15309"
               xlink:href="#FreeSerif-111"
               id="use156" />
            <use
               x="191.25308"
               xlink:href="#FreeSerif-100"
               id="use158" />
            <use
               x="241.15308"
               xlink:href="#FreeSerif-105"
               id="use160" />
            <use
               x="268.92181"
               xlink:href="#FreeSerif-99"
               id="use162" />
            <use
               x="313.30618"
               xlink:href="#FreeSerif-105"
               id="use164" />
            <use
               x="341.07492"
               xlink:href="#FreeSerif-116"
               id="use166" />
            <use
               x="369.37491"
               xlink:href="#FreeSerif-121"
               id="use168" />
            <use
               x="416.47488"
               xlink:href="#FreeSerif-32"
               id="use170" />
            <use
               x="441.47488"
               xlink:href="#FreeSerif-85"
               id="use172" />
            <use
               x="513.57489"
               xlink:href="#FreeSerif-112"
               id="use174" />
            <use
               x="563.55927"
               xlink:href="#FreeSerif-112"
               id="use176" />
            <use
               x="613.5592"
               xlink:href="#FreeSerif-101"
               id="use178" />
            <use
               x="657.9436"
               xlink:href="#FreeSerif-114"
               id="use180" />
            <use
               x="692.4436"
               xlink:href="#FreeSerif-32"
               id="use182" />
            <use
               x="717.44354"
               xlink:href="#FreeSerif-66"
               id="use184" />
            <use
               x="780.54358"
               xlink:href="#FreeSerif-111"
               id="use186" />
            <use
               x="829.62793"
               xlink:href="#FreeSerif-117"
               id="use188" />
            <use
               x="878.62787"
               xlink:href="#FreeSerif-110"
               id="use190" />
            <use
               x="927.51227"
               xlink:href="#FreeSerif-100"
               id="use192" />
          </g>
        </g>
      </g>
      <g
         id="matplotlib.axis_2">
        <g
           id="ytick_1">
          <g
             id="line2d_11">
            <path
               clip-path="url(#pcb0e30eda1)"
               d="M 41.43125,111.9984 H 236.68"
               style="fill:none;stroke:#b0b0b0;stroke-width:0.8;stroke-linecap:square"
               id="path198" />
          </g>
          <g
             id="line2d_12">
            <defs
               id="defs202">
              <path
                 d="M 0,0 H -3.5"
                 id="m22866aa130"
                 style="stroke:#000000;stroke-width:0.8" />
            </defs>
            <g
               id="g206">
              <use
                 style="stroke:#000000;stroke-width:0.8"
                 x="41.431252"
                 xlink:href="#m22866aa130"
                 y="111.9984"
                 id="use204" />
            </g>
          </g>
          <g
             id="text_7">
            <!-- 6 -->
            <g
               transform="matrix(0.1,0,0,-0.1,29.43125,115.41324)"
               id="g211">
              <use
                 xlink:href="#FreeSerif-54"
                 id="use209" />
            </g>
          </g>
        </g>
        <g
           id="ytick_2">
          <g
             id="line2d_13">
            <path
               clip-path="url(#pcb0e30eda1)"
               d="M 41.43125,69.448723 H 236.68"
               style="fill:none;stroke:#b0b0b0;stroke-width:0.8;stroke-linecap:square"
               id="path215" />
          </g>
          <g
             id="line2d_14">
            <g
               id="g220">
              <use
                 style="stroke:#000000;stroke-width:0.8"
                 x="41.431252"
                 xlink:href="#m22866aa130"
                 y="69.448723"
                 id="use218" />
            </g>
          </g>
          <g
             id="text_8">
            <!-- 8 -->
            <g
               transform="matrix(0.1,0,0,-0.1,29.43125,72.863567)"
               id="g225">
              <use
                 xlink:href="#FreeSerif-56"
                 id="use223" />
            </g>
          </g>
        </g>
        <g
           id="ytick_3">
          <g
             id="line2d_15">
            <path
               clip-path="url(#pcb0e30eda1)"
               d="M 41.43125,26.899046 H 236.68"
               style="fill:none;stroke:#b0b0b0;stroke-width:0.8;stroke-linecap:square"
               id="path229" />
          </g>
          <g
             id="line2d_16">
            <g
               id="g234">
              <use
                 style="stroke:#000000;stroke-width:0.8"
                 x="41.431252"
                 xlink:href="#m22866aa130"
                 y="26.899046"
                 id="use232" />
            </g>
          </g>
          <g
             id="text_9">
            <!-- 10 -->
            <g
               transform="matrix(0.1,0,0,-0.1,24.43125,30.31389)"
               id="g241">
              <use
                 xlink:href="#FreeSerif-49"
                 id="use237" />
              <use
                 x="49.999985"
                 xlink:href="#FreeSerif-48"
                 id="use239" />
            </g>
          </g>
        </g>
        <g
           id="text_10">
          <!-- Optimized Time (s) -->
          <defs
             id="defs258">
            <path
               d="m 39.296875,69.09375 q 15.109375,0 25.046875,-10.09375 9.953125,-10.09375 9.953125,-25.40625 0,-15.5 -9.953125,-25.5 -9.9375,-10 -25.4375,-10 -15.5,0 -25.453125,9.953125 Q 3.5,18 3.5,33.5 q 0,15.59375 10.046875,25.59375 10.046875,10 25.75,10 z m -0.09375,-3.296875 q -8.796875,0 -13.40625,-8.5 -4.59375,-8.5 -4.59375,-24.703125 0,-15.1875 4.546875,-23.1875 4.546875,-8 13.140625,-8 8.609375,0 13.15625,8.046875 Q 56.59375,17.5 56.59375,32.90625 q 0,15.59375 -4.546875,24.234375 -4.546875,8.65625 -12.84375,8.65625 z"
               id="FreeSerifBold-79" />
            <path
               d="m 20.796875,46.09375 v -6.890625 q 2.296875,4.296875 5.25,6.1875 2.953125,1.90625 7.359375,1.90625 8.296875,0 13.4375,-6.5 Q 52,34.296875 52,23.90625 52,12.796875 46.59375,5.75 41.203125,-1.296875 32.796875,-1.296875 q -3.296875,0 -5.75,1.25 -2.453125,1.25 -6.046875,4.75 V -9.40625 q 0,-5 1.59375,-6.890625 1.609375,-1.90625 6.203125,-2.109375 V -20.5 H 1.5 v 2.40625 q 3.59375,0.59375 4.59375,1.640625 1,1.046875 1,4.15625 v 50.09375 q 0,3.109375 -1.046875,4.25 Q 5,43.203125 1.703125,43.703125 v 2.390625 z m 8.796875,-4.5 q -3.1875,0 -5.890625,-2.75 Q 21,36.09375 21,34.59375 V 10.296875 q 2.40625,-6.09375 7.703125,-6.09375 8.5,0 8.5,18.296875 0,19.09375 -7.609375,19.09375 z"
               id="FreeSerifBold-112" />
            <path
               d="M 30.296875,46.09375 V 41.703125 H 20.90625 V 11.59375 q 0,-3 0.890625,-4.34375 0.90625,-1.34375 3,-1.34375 3,0 5.703125,5.1875 L 33,10 Q 29.90625,3.90625 26.546875,1.34375 23.203125,-1.203125 18.203125,-1.203125 13,-1.203125 10,1.59375 7,4.40625 7,9.296875 v 32.40625 H 1.796875 V 44.40625 Q 6.703125,48.5 10.25,52.5 q 3.546875,4 8.15625,10.5 h 2.5 V 46.09375 Z"
               id="FreeSerifBold-116" />
            <path
               d="m 21.59375,46.09375 v -38 q 0,-2.796875 1.09375,-4.046875 1.109375,-1.25 3.8125,-1.640625 V 0 H 2.40625 V 2.40625 Q 5.796875,3.203125 6.75,4.25 7.703125,5.296875 7.703125,8.40625 v 29.390625 q 0,3.109375 -1,4.15625 -1,1.046875 -4.296875,1.75 v 2.390625 z m -14.796875,18.5 q 4.609375,4.5 7.796875,4.5 3.203125,0 5.453125,-2.296875 2.25,-2.296875 2.25,-5.5 0,-3.296875 -2.25,-5.5 -2.25,-2.203125 -5.546875,-2.203125 -3.296875,0 -5.5,2.203125 Q 6.796875,58 6.796875,61.40625 q 0,3.1875 4.609375,7.6875 z"
               id="FreeSerifBold-105" />
            <path
               d="m 29.40625,40.59375 q -2.703125,0 -5.5625,-2.296875 Q 21,36 21,34.796875 V 8.09375 Q 21,5.203125 22,4 23,2.796875 25.59375,2.40625 V 0 H 1.796875 V 2.40625 Q 5.09375,3 6.09375,4.140625 q 1,1.15625 1,4.265625 v 29.390625 q 0,3.109375 -1,4.296875 -1,1.203125 -4.296875,1.609375 v 2.390625 h 18.90625 v -7.5 q 5.5,8.703125 14.703125,8.703125 4.6875,0 7.59375,-2 2.90625,-2 5.203125,-6.703125 3.890625,4.8125 7.140625,6.75 3.25,1.953125 7.5625,1.953125 6.1875,0 9.84375,-3.859375 3.65625,-3.84375 3.65625,-10.234375 V 8.09375 q 0,-3.1875 1.046875,-4.34375 Q 78.5,2.59375 81.40625,2.40625 V 0 H 57.59375 V 2.40625 Q 60.5,2.59375 61.5,3.796875 62.5,5 62.5,8.09375 v 24.203125 q 0,4.40625 -1.25,6.34375 -1.25,1.953125 -4.046875,1.953125 -2.609375,0 -5.5625,-2.34375 -2.9375,-2.34375 -2.9375,-3.453125 V 8.09375 q 0,-2.890625 1.046875,-4.140625 1.046875,-1.25 3.65625,-1.546875 V 0 H 30 v 2.40625 q 2.796875,0.1875 3.796875,1.390625 1,1.203125 1,4.296875 v 24.203125 q 0,4.5 -1.25,6.390625 -1.25,1.90625 -4.140625,1.90625 z"
               id="FreeSerifBold-109" />
            <path
               d="m 21.40625,3.203125 q 7.890625,0 11.78125,2.6875 Q 37.09375,8.59375 39.203125,16 H 42 L 40.40625,0 H 2.09375 V 2.5 L 25.5,42.90625 h -1.09375 q -9.703125,0 -12.953125,-2 -3.25,-2 -5.046875,-9 H 3.796875 L 4.5,46.09375 H 41.59375 V 43.5 L 18.5,3.203125 Z"
               id="FreeSerifBold-122" />
            <path
               d="M 16.90625,24.5 Q 17,21.796875 17.296875,19.640625 17.59375,17.5 18.34375,14.75 q 0.75,-2.75 2,-4.546875 1.25,-1.796875 3.40625,-3.109375 2.15625,-1.296875 5.046875,-1.296875 3.203125,0 5.796875,1.5 2.609375,1.5 5.609375,5.203125 l 2.390625,-1.40625 q -4.890625,-7 -9.140625,-9.75 -4.25,-2.75 -10.359375,-2.75 -9.296875,0 -14.953125,6.65625 Q 2.5,11.90625 2.5,22.796875 q 0,11 5.75,17.75 5.75,6.75 15.15625,6.75 17.09375,0 18.6875,-22.796875 z m 12.890625,5.203125 q -0.09375,3.203125 -0.203125,4.890625 -0.09375,1.703125 -0.5,3.84375 -0.390625,2.15625 -1.046875,3.203125 -0.640625,1.0625 -1.796875,1.8125 -1.15625,0.75 -2.84375,0.75 -3.703125,0 -5.265625,-3.5 -1.546875,-3.5 -1.734375,-12.5 h 13.390625 z"
               id="FreeSerifBold-101" />
            <path
               d="m 33.90625,-1.296875 v 6.5 Q 30.40625,1.5 27.5,0.046875 24.59375,-1.40625 20.59375,-1.40625 q -7.890625,0 -13,6.65625 Q 2.5,11.90625 2.5,22.09375 2.5,33 7.953125,40.140625 q 5.453125,7.15625 13.75,7.15625 3.390625,0 6.046875,-1.359375 2.65625,-1.34375 5.84375,-4.84375 v 18.3125 q 0,3.5 -1.296875,4.4375 Q 31,64.796875 26,65.203125 v 2.390625 h 21.5 v -57.5 q 0,-3.1875 1.25,-4.390625 Q 50,4.5 53.40625,4.296875 V 2 L 47.203125,1.203125 Q 39,0.09375 33.90625,-1.296875 Z m -8.8125,5.5 q 3.3125,0 5.90625,2.84375 2.59375,2.859375 2.59375,4.15625 V 35.5 q -1,2.796875 -3.15625,4.5 -2.140625,1.703125 -4.640625,1.703125 -8.5,0 -8.5,-18.796875 0,-18.703125 7.796875,-18.703125 z"
               id="FreeSerifBold-100" />
            <path
               id="FreeSerifBold-32"
               d="" />
            <path
               d="M 24.203125,11.703125 V 64.40625 Q 14.90625,64.09375 10.546875,60.25 6.203125,56.40625 4.90625,47.5 H 2 l 0.296875,20.09375 h 60 L 62.5,47.5 h -2.90625 q -1.296875,8.90625 -5.65625,12.75 -4.34375,3.84375 -13.53125,4.15625 V 11.703125 Q 40.40625,6 42.046875,4.5 43.703125,3 50.203125,2.5 V 0 H 14.5 v 2.5 q 6.40625,0.5 8.046875,2.046875 1.65625,1.546875 1.65625,7.15625 z"
               id="FreeSerifBold-84" />
            <path
               d="m 15.90625,25.796875 q 0,-6.59375 0.546875,-12 0.546875,-5.390625 1.1875,-9 0.65625,-3.59375 2.15625,-6.734375 1.5,-3.15625 2.296875,-4.65625 0.8125,-1.5 2.90625,-3.34375 2.09375,-1.859375 2.6875,-2.25 0.609375,-0.40625 2.90625,-1.8125 v -2.796875 q -7.296875,4.390625 -11.25,8.046875 -3.9375,3.65625 -7.4375,9.046875 -7.3125,11.609375 -7.3125,25.609375 0,19.796875 13.109375,34 Q 20.59375,63 23.296875,64.953125 26,66.90625 30.59375,69.40625 v -2.703125 q -5.890625,-3.90625 -8.84375,-8.15625 -2.953125,-4.25 -4.40625,-11.859375 -1.4375,-7.59375 -1.4375,-20.890625 z"
               id="FreeSerifBold-40" />
            <path
               d="m 19.40625,47.296875 q 2.796875,0 6.484375,-1.109375 3.703125,-1.09375 4.515625,-1.09375 1.59375,0 2.390625,2 H 35 v -14.5 H 32.5 Q 28.59375,44 20.296875,44 17.5,44 15.59375,42.34375 q -1.890625,-1.640625 -1.890625,-4.140625 0,-2.296875 1.75,-4.15625 1.75,-1.84375 4.34375,-2.953125 Q 22.40625,30 25.40625,28.453125 28.40625,26.90625 31,25.25 q 2.59375,-1.65625 4.34375,-4.609375 1.75,-2.9375 1.75,-6.84375 0,-6.703125 -4.296875,-10.953125 -4.296875,-4.25 -11.09375,-4.25 -4.109375,0 -8.3125,1.453125 Q 9.203125,1.5 8.59375,1.5 7.5,1.5 6,-1.296875 H 3.5 v 16.5 H 6.296875 Q 9.5,2 20,2 23.40625,2 25.453125,3.796875 27.5,5.59375 27.5,8.5 q 0,2.59375 -2.453125,4.59375 -2.453125,2 -5.953125,3.59375 -3.5,1.609375 -7,3.453125 -3.5,1.859375 -5.953125,5.0625 -2.4375,3.203125 -2.4375,7.5 0,6.296875 4.4375,10.4375 4.453125,4.15625 11.265625,4.15625 z"
               id="FreeSerifBold-115" />
            <path
               d="m 2.703125,69.40625 q 3.390625,-2.109375 6.140625,-4.0625 2.75,-1.9375 6.703125,-5.890625 Q 19.5,55.5 22.140625,51.203125 24.796875,46.90625 26.75,40.40625 q 1.953125,-6.5 1.953125,-13.8125 0,-19.796875 -13.203125,-33.890625 -4.90625,-5.296875 -12.796875,-9.5 v 2.703125 q 5.890625,3.890625 8.890625,8.296875 3,4.390625 4.40625,11.890625 1.40625,7.5 1.40625,20.703125 0,9 -1,15.796875 -1,6.8125 -2.15625,10.453125 -1.15625,3.65625 -3.65625,6.75 -2.5,3.109375 -3.703125,3.953125 -1.1875,0.84375 -4.1875,2.84375 z"
               id="FreeSerifBold-41" />
          </defs>
          <g
             style="fill:#1f77b4"
             transform="matrix(0,-0.1,-0.1,0,18.38125,116.46281)"
             id="g296">
            <use
               xlink:href="#FreeSerifBold-79"
               id="use260" />
            <use
               x="77.799988"
               xlink:href="#FreeSerifBold-112"
               id="use262" />
            <use
               x="132.29997"
               xlink:href="#FreeSerifBold-116"
               id="use264" />
            <use
               x="165.79996"
               xlink:href="#FreeSerifBold-105"
               id="use266" />
            <use
               x="195.68433"
               xlink:href="#FreeSerifBold-109"
               id="use268" />
            <use
               x="278.88431"
               xlink:href="#FreeSerifBold-105"
               id="use270" />
            <use
               x="308.76868"
               xlink:href="#FreeSerifBold-122"
               id="use272" />
            <use
               x="353.16867"
               xlink:href="#FreeSerifBold-101"
               id="use274" />
            <use
               x="397.56866"
               xlink:href="#FreeSerifBold-100"
               id="use276" />
            <use
               x="452.76865"
               xlink:href="#FreeSerifBold-32"
               id="use278" />
            <use
               x="477.76865"
               xlink:href="#FreeSerifBold-84"
               id="use280" />
            <use
               x="542.26862"
               xlink:href="#FreeSerifBold-105"
               id="use282" />
            <use
               x="572.15302"
               xlink:href="#FreeSerifBold-109"
               id="use284" />
            <use
               x="655.33734"
               xlink:href="#FreeSerifBold-101"
               id="use286" />
            <use
               x="699.73737"
               xlink:href="#FreeSerifBold-32"
               id="use288" />
            <use
               x="724.7373"
               xlink:href="#FreeSerifBold-40"
               id="use290" />
            <use
               x="758.03735"
               xlink:href="#FreeSerifBold-115"
               id="use292" />
            <use
               x="798.63733"
               xlink:href="#FreeSerifBold-41"
               id="use294" />
          </g>
        </g>
      </g>
      <g
         id="line2d_17">
        <path
           clip-path="url(#pcb0e30eda1)"
           d="M 227.80506,133.10472 190.43687,132.93405 134.3846,117.54538 78.33233,91.37015 59.648239,59.887082 50.306193,16.624034"
           style="fill:none;stroke:#1f77b4;stroke-width:1.5;stroke-linecap:square"
           id="path300" />
      </g>
      <g
         id="patch_3">
        <path
           d="M 41.43125,138.92875 V 10.8"
           style="fill:none;stroke:#000000;stroke-width:0.8;stroke-linecap:square;stroke-linejoin:miter"
           id="path303" />
      </g>
      <g
         id="patch_4">
        <path
           d="M 236.68,138.92875 V 10.8"
           style="fill:none;stroke:#000000;stroke-width:0.8;stroke-linecap:square;stroke-linejoin:miter"
           id="path306" />
      </g>
      <g
         id="patch_5">
        <path
           d="M 41.43125,138.92875 H 236.68"
           style="fill:none;stroke:#000000;stroke-width:0.8;stroke-linecap:square;stroke-linejoin:miter"
           id="path309" />
      </g>
      <g
         id="patch_6">
        <path
           d="M 41.43125,10.8 H 236.68"
           style="fill:none;stroke:#000000;stroke-width:0.8;stroke-linecap:square;stroke-linejoin:miter"
           id="path312" />
      </g>
    </g>
    <g
       id="axes_2">
      <g
         id="matplotlib.axis_3">
        <g
           id="ytick_4">
          <g
             id="line2d_18">
            <defs
               id="defs317">
              <path
                 d="M 0,0 H 3.5"
                 id="m4e2b231c0b"
                 style="stroke:#000000;stroke-width:0.8" />
            </defs>
            <g
               id="g321">
              <use
                 style="stroke:#000000;stroke-width:0.8"
                 x="236.67999"
                 xlink:href="#m4e2b231c0b"
                 y="114.97484"
                 id="use319" />
            </g>
          </g>
          <g
             id="text_11">
            <!-- 500 -->
            <defs
               id="defs325">
              <path
                 d="m 35.703125,19.40625 q 0,5.296875 -2.359375,9.390625 Q 31,32.90625 27.640625,35.15625 q -3.34375,2.25 -7.5,3.6875 Q 16,40.296875 12.953125,40.75 9.90625,41.203125 7.59375,41.203125 q -1.1875,0 -1.1875,0.796875 0,0.296875 0.09375,0.5 l 10.90625,23.703125 h 20.890625 q 1.609375,0 2.546875,0.5 0.953125,0.5 2.0625,2.09375 L 43.796875,68.09375 40,59.203125 q -0.40625,-0.90625 -2.296875,-0.90625 H 18.09375 l -4.1875,-8.5 Q 28.5,47.203125 35.59375,41.34375 42.703125,35.5 42.703125,24.203125 q 0,-5.90625 -1.859375,-10.515625 Q 39,9.09375 36.140625,6.296875 33.296875,3.5 29.546875,1.703125 25.796875,-0.09375 22.34375,-0.75 18.90625,-1.40625 15.40625,-1.40625 9.796875,-1.40625 6.5,0.25 3.203125,1.90625 3.203125,4.796875 3.203125,8.5 7.5,8.5 q 2.796875,0 7.25,-3.109375 4.453125,-3.09375 7.046875,-3.09375 5.90625,0 9.90625,4.953125 4,4.953125 4,12.15625 z"
                 id="FreeSerif-53" />
            </defs>
            <g
               transform="matrix(0.1,0,0,-0.1,243.68,118.38968)"
               id="g333">
              <use
                 xlink:href="#FreeSerif-53"
                 id="use327" />
              <use
                 x="49.999985"
                 xlink:href="#FreeSerif-48"
                 id="use329" />
              <use
                 x="99.999969"
                 xlink:href="#FreeSerif-48"
                 id="use331" />
            </g>
          </g>
        </g>
        <g
           id="ytick_5">
          <g
             id="line2d_19">
            <g
               id="g339">
              <use
                 style="stroke:#000000;stroke-width:0.8"
                 x="236.67999"
                 xlink:href="#m4e2b231c0b"
                 y="90.904427"
                 id="use337" />
            </g>
          </g>
          <g
             id="text_12">
            <!-- 750 -->
            <defs
               id="defs343">
              <path
                 d="M 44.90625,66.203125 V 64.59375 L 23.703125,-0.796875 h -6.5 L 37,58.796875 H 15.296875 q -4.09375,0 -6.25,-1.5 -2.140625,-1.5 -5.34375,-6.59375 L 2,51.5 7.90625,66.203125 Z"
                 id="FreeSerif-55" />
            </defs>
            <g
               transform="matrix(0.1,0,0,-0.1,243.68,94.319269)"
               id="g351">
              <use
                 xlink:href="#FreeSerif-55"
                 id="use345" />
              <use
                 x="49.999985"
                 xlink:href="#FreeSerif-53"
                 id="use347" />
              <use
                 x="99.999969"
                 xlink:href="#FreeSerif-48"
                 id="use349" />
            </g>
          </g>
        </g>
        <g
           id="ytick_6">
          <g
             id="line2d_20">
            <g
               id="g357">
              <use
                 style="stroke:#000000;stroke-width:0.8"
                 x="236.67999"
                 xlink:href="#m4e2b231c0b"
                 y="66.834015"
                 id="use355" />
            </g>
          </g>
          <g
             id="text_13">
            <!-- 1000 -->
            <g
               transform="matrix(0.1,0,0,-0.1,243.68,70.248859)"
               id="g368">
              <use
                 xlink:href="#FreeSerif-49"
                 id="use360" />
              <use
                 x="49.999985"
                 xlink:href="#FreeSerif-48"
                 id="use362" />
              <use
                 x="99.999969"
                 xlink:href="#FreeSerif-48"
                 id="use364" />
              <use
                 x="149.99995"
                 xlink:href="#FreeSerif-48"
                 id="use366" />
            </g>
          </g>
        </g>
        <g
           id="ytick_7">
          <g
             id="line2d_21">
            <g
               id="g374">
              <use
                 style="stroke:#000000;stroke-width:0.8"
                 x="236.67999"
                 xlink:href="#m4e2b231c0b"
                 y="42.763607"
                 id="use372" />
            </g>
          </g>
          <g
             id="text_14">
            <!-- 1250 -->
            <g
               transform="matrix(0.1,0,0,-0.1,243.68,46.178449)"
               id="g385">
              <use
                 xlink:href="#FreeSerif-49"
                 id="use377" />
              <use
                 x="49.999985"
                 xlink:href="#FreeSerif-50"
                 id="use379" />
              <use
                 x="99.999969"
                 xlink:href="#FreeSerif-53"
                 id="use381" />
              <use
                 x="149.99995"
                 xlink:href="#FreeSerif-48"
                 id="use383" />
            </g>
          </g>
        </g>
        <g
           id="ytick_8">
          <g
             id="line2d_22">
            <g
               id="g391">
              <use
                 style="stroke:#000000;stroke-width:0.8"
                 x="236.67999"
                 xlink:href="#m4e2b231c0b"
                 y="18.693195"
                 id="use389" />
            </g>
          </g>
          <g
             id="text_15">
            <!-- 1500 -->
            <g
               transform="matrix(0.1,0,0,-0.1,243.68,22.10804)"
               id="g402">
              <use
                 xlink:href="#FreeSerif-49"
                 id="use394" />
              <use
                 x="49.999985"
                 xlink:href="#FreeSerif-53"
                 id="use396" />
              <use
                 x="99.999969"
                 xlink:href="#FreeSerif-48"
                 id="use398" />
              <use
                 x="149.99995"
                 xlink:href="#FreeSerif-48"
                 id="use400" />
            </g>
          </g>
        </g>
        <g
           id="text_16">
          <!-- Time-Normalized Control Cost -->
          <defs
             id="defs414">
            <path
               d="M 28.703125,28.703125 V 17.09375 H 4.40625 v 11.609375 z"
               id="FreeSerifBold-45" />
            <path
               d="M 23.40625,67.59375 58.296875,24.703125 v 30.5 q 0,5.296875 -1.90625,7.34375 Q 54.5,64.59375 49,65.09375 v 2.5 h 21.5 v -2.5 q -4.90625,-0.796875 -6.359375,-2.25 -1.4375,-1.4375 -1.4375,-5.75 V -1.796875 H 59.90625 L 15.203125,52.59375 v -40.1875 q 0,-5.3125 1.84375,-7.265625 Q 18.90625,3.203125 24.703125,2.5 V 0 H 2 v 2.5 q 5.5,0.703125 7.140625,2.203125 1.65625,1.5 1.65625,5.796875 V 57.90625 Q 7.203125,62.203125 5.5,63.640625 3.796875,65.09375 2.296875,65.09375 v 2.5 z"
               id="FreeSerifBold-78" />
            <path
               d="m 25.09375,47.296875 q 9.703125,0 16.09375,-6.953125 6.40625,-6.9375 6.40625,-17.4375 0,-10.40625 -6.40625,-17.359375 -6.390625,-6.953125 -16.09375,-6.953125 -9.796875,0 -16.203125,6.953125 Q 2.5,12.5 2.5,23.203125 2.5,33.40625 9.046875,40.34375 15.59375,47.296875 25.09375,47.296875 Z m 0.109375,-3.09375 q -4.609375,0 -6.3125,-4.8125 -1.6875,-4.796875 -1.6875,-17.984375 0,-11 1.75,-15.359375 1.75,-4.34375 6.140625,-4.34375 4.40625,0 6.109375,4.546875 1.703125,4.546875 1.703125,16.046875 0,12.296875 -1.703125,17.09375 -1.703125,4.8125 -6,4.8125 z"
               id="FreeSerifBold-111" />
            <path
               d="m 35.90625,32.796875 q -2.3125,0 -4.0625,1.5 -1.75,1.5 -2.84375,2.953125 -1.09375,1.453125 -1.90625,1.453125 -2.5,0 -4.296875,-2.8125 Q 21,33.09375 21,29.203125 v -18.90625 q 0,-4.703125 1.34375,-6.15625 1.359375,-1.4375 5.953125,-1.734375 V 0 h -26.5 V 2.40625 Q 5.09375,3 6.09375,4.140625 q 1,1.15625 1,4.265625 v 29.390625 q 0,3 -1.046875,4.25 -1.046875,1.25 -4.25,1.65625 V 46.09375 H 20.59375 v -8.1875 q 3.5,5 6.65625,7.1875 3.15625,2.203125 6.84375,2.203125 3.5,0 5.796875,-2.203125 2.3125,-2.1875 2.3125,-5.59375 0,-2.90625 -1.75,-4.8125 -1.75,-1.890625 -4.546875,-1.890625 z"
               id="FreeSerifBold-114" />
            <path
               d="m 14.703125,40.40625 q 0,-0.5 1.5,-2.65625 1.5,-2.15625 1.5,-3.84375 0,-2.609375 -1.90625,-4.21875 -1.890625,-1.59375 -4.890625,-1.59375 -3.109375,0 -4.8125,1.75 -1.6875,1.75 -1.6875,4.859375 0,5.59375 5.1875,9.09375 5.203125,3.5 13.703125,3.5 9.109375,0 14.453125,-3.703125 5.34375,-3.6875 5.34375,-10 V 7.5 q 0,-2.5 2.109375,-2.5 0.703125,0 1.09375,0.40625 l 1,1 1.5,-2.109375 Q 43.5,-1.40625 37.59375,-1.40625 q -3.6875,0 -5.546875,1.59375 -1.84375,1.609375 -2.640625,5.40625 -7.703125,-7 -15.8125,-7 -4.796875,0 -7.953125,3 Q 2.5,4.59375 2.5,9.203125 2.5,12.296875 4.140625,14.9375 5.796875,17.59375 8,19.296875 10.203125,21 14.046875,22.703125 q 3.859375,1.703125 6.546875,2.59375 2.703125,0.90625 7.109375,2.203125 1.09375,0.296875 1.703125,0.5 v 7.296875 q 0,4.609375 -2,6.703125 -2,2.09375 -6.40625,2.09375 -2.59375,0 -4.453125,-1.046875 Q 14.703125,42 14.703125,40.40625 Z M 29.296875,10 V 24.5 Q 17.09375,21.296875 17.09375,12.40625 q 0,-3 1.40625,-4.859375 1.40625,-1.84375 3.703125,-1.84375 3.390625,0 7.09375,4.296875 z"
               id="FreeSerifBold-97" />
            <path
               d="M 21,67.59375 V 8.40625 q 0,-5.90625 4.90625,-6 V 0 H 1.796875 v 2.40625 q 5.296875,0.5 5.296875,6 v 51 q 0,5.296875 -5.296875,5.796875 v 2.390625 z"
               id="FreeSerifBold-108" />
            <path
               d="m 41.296875,2.90625 q 6.609375,0 12,3.1875 5.40625,3.203125 11,9.109375 l 3,-2.5 L 66,11.203125 Q 64.703125,9.796875 64.34375,9.4375 64,9.09375 62.546875,7.640625 61.09375,6.203125 60.296875,5.59375 59.5,5 57.796875,3.75 56.09375,2.5 54.84375,1.890625 q -1.25,-0.59375 -3.25,-1.453125 -2,-0.84375 -3.84375,-1.28125 -1.84375,-0.453125 -4.15625,-0.75 -2.296875,-0.3125 -4.6875,-0.3125 -15.5,0 -25.453125,9.90625 Q 3.5,17.90625 3.5,33.296875 q 0,15.296875 9.953125,25.546875 9.953125,10.25 24.84375,10.25 4.703125,0 8.84375,-1.25 4.15625,-1.25 6.953125,-2.453125 2.8125,-1.1875 4.3125,-1.1875 1.390625,0 2.390625,1 1,1 2,3.59375 H 65.5 V 45.40625 H 63 q -1,2.1875 -2.109375,4.140625 Q 59.796875,51.5 57.5,54.703125 q -2.296875,3.203125 -4.703125,5.453125 -2.390625,2.25 -5.953125,3.9375 -3.546875,1.703125 -7.25,1.703125 -9,0 -13.703125,-8.109375 -4.6875,-8.09375 -4.6875,-23.59375 0,-31.1875 20.09375,-31.1875 z"
               id="FreeSerifBold-67" />
            <path
               d="m 29.59375,40.59375 q -2.796875,0 -5.703125,-2.34375 Q 21,35.90625 21,34.796875 V 8.09375 q 0,-2.796875 1.046875,-4.046875 1.046875,-1.25 3.859375,-1.640625 V 0 H 1.796875 v 2.40625 q 3.40625,0.6875 4.34375,1.78125 0.953125,1.109375 0.953125,4.21875 v 29.390625 q 0,3.109375 -1,4.25 -1,1.15625 -4.296875,1.65625 V 46.09375 H 20.90625 v -7.5 q 5.5,8.703125 14.296875,8.703125 6.203125,0 9.84375,-3.859375 3.65625,-3.84375 3.65625,-10.234375 V 8.09375 q 0,-3.1875 1,-4.34375 1,-1.15625 3.890625,-1.34375 V 0 h -23.5 v 2.40625 q 2.5,0.296875 3.59375,1.59375 1.109375,1.296875 1.109375,4.09375 v 24.203125 q 0,8.296875 -5.203125,8.296875 z"
               id="FreeSerifBold-110" />
          </defs>
          <g
             style="fill:#ff7f0e"
             transform="matrix(0,-0.1,-0.1,0,274.43937,141.39328)"
             id="g472">
            <use
               xlink:href="#FreeSerifBold-84"
               id="use416" />
            <use
               x="64.499985"
               xlink:href="#FreeSerifBold-105"
               id="use418" />
            <use
               x="94.384354"
               xlink:href="#FreeSerifBold-109"
               id="use420" />
            <use
               x="177.56871"
               xlink:href="#FreeSerifBold-101"
               id="use422" />
            <use
               x="221.9687"
               xlink:href="#FreeSerifBold-45"
               id="use424" />
            <use
               x="255.26869"
               xlink:href="#FreeSerifBold-78"
               id="use426" />
            <use
               x="327.76868"
               xlink:href="#FreeSerifBold-111"
               id="use428" />
            <use
               x="377.85306"
               xlink:href="#FreeSerifBold-114"
               id="use430" />
            <use
               x="420.55304"
               xlink:href="#FreeSerifBold-109"
               id="use432" />
            <use
               x="503.75302"
               xlink:href="#FreeSerifBold-97"
               id="use434" />
            <use
               x="553.75299"
               xlink:href="#FreeSerifBold-108"
               id="use436" />
            <use
               x="581.453"
               xlink:href="#FreeSerifBold-105"
               id="use438" />
            <use
               x="611.3374"
               xlink:href="#FreeSerifBold-122"
               id="use440" />
            <use
               x="655.73737"
               xlink:href="#FreeSerifBold-101"
               id="use442" />
            <use
               x="700.13739"
               xlink:href="#FreeSerifBold-100"
               id="use444" />
            <use
               x="755.33734"
               xlink:href="#FreeSerifBold-32"
               id="use446" />
            <use
               x="780.33734"
               xlink:href="#FreeSerifBold-67"
               id="use448" />
            <use
               x="851.13733"
               xlink:href="#FreeSerifBold-111"
               id="use450" />
            <use
               x="901.22168"
               xlink:href="#FreeSerifBold-110"
               id="use452" />
            <use
               x="956.60608"
               xlink:href="#FreeSerifBold-116"
               id="use454" />
            <use
               x="990.10608"
               xlink:href="#FreeSerifBold-114"
               id="use456" />
            <use
               x="1032.7904"
               xlink:href="#FreeSerifBold-111"
               id="use458" />
            <use
               x="1082.8748"
               xlink:href="#FreeSerifBold-108"
               id="use460" />
            <use
               x="1110.5748"
               xlink:href="#FreeSerifBold-32"
               id="use462" />
            <use
               x="1135.5747"
               xlink:href="#FreeSerifBold-67"
               id="use464" />
            <use
               x="1206.3748"
               xlink:href="#FreeSerifBold-111"
               id="use466" />
            <use
               x="1256.4747"
               xlink:href="#FreeSerifBold-115"
               id="use468" />
            <use
               x="1297.0591"
               xlink:href="#FreeSerifBold-116"
               id="use470" />
          </g>
        </g>
      </g>
      <g
         id="line2d_23">
        <path
           clip-path="url(#pcb0e30eda1)"
           d="M 227.80506,45.622602 190.43687,16.624034 134.3846,29.880001 78.33233,50.895103 59.648239,100.01336 50.306193,133.10472"
           style="fill:none;stroke:#ff7f0e;stroke-width:1.5;stroke-dasharray:9.6, 2.4, 1.5, 2.4;stroke-dashoffset:0"
           id="path476" />
      </g>
      <g
         id="patch_7">
        <path
           d="M 41.43125,138.92875 V 10.8"
           style="fill:none;stroke:#000000;stroke-width:0.8;stroke-linecap:square;stroke-linejoin:miter"
           id="path479" />
      </g>
      <g
         id="patch_8">
        <path
           d="M 236.68,138.92875 V 10.8"
           style="fill:none;stroke:#000000;stroke-width:0.8;stroke-linecap:square;stroke-linejoin:miter"
           id="path482" />
      </g>
      <g
         id="patch_9">
        <path
           d="M 41.43125,138.92875 H 236.68"
           style="fill:none;stroke:#000000;stroke-width:0.8;stroke-linecap:square;stroke-linejoin:miter"
           id="path485" />
      </g>
      <g
         id="patch_10">
        <path
           d="M 41.43125,10.8 H 236.68"
           style="fill:none;stroke:#000000;stroke-width:0.8;stroke-linecap:square;stroke-linejoin:miter"
           id="path488" />
      </g>
    </g>
  </g>
  <defs
     id="defs496">
    <clipPath
       id="pcb0e30eda1">
      <rect
         height="128.12875"
         width="195.24875"
         x="41.431252"
         y="10.8"
         id="rect493" />
    </clipPath>
  </defs>
</svg>
