ply
format ascii 1.0
comment Created by Blender 2.69 (sub 0) - www.blender.org, source file: 'CartoonTree.blend'
element vertex 32
property float x
property float y
property float z
property float nx
property float ny
property float nz
element face 14
property list uchar uint vertex_indices
end_header
-1.525971 0.000000 2.547373 -0.838717 0.347408 0.419358
0.000000 0.000000 5.599314 -0.838717 0.347408 0.419358
-1.079024 1.079024 2.547373 -0.838717 0.347408 0.419358
0.000000 1.525971 2.547373 0.347408 0.838717 0.419359
0.000000 0.000000 5.599314 0.347408 0.838717 0.419359
1.079024 1.079024 2.547373 0.347408 0.838717 0.419359
-1.079024 -1.079024 2.547373 -0.838717 -0.347408 0.419358
0.000000 0.000000 5.599314 -0.838717 -0.347408 0.419358
-1.525971 0.000000 2.547373 -0.838717 -0.347408 0.419358
-0.000000 -1.525971 2.547373 -0.347408 -0.838717 0.419359
0.000000 0.000000 5.599314 -0.347408 -0.838717 0.419359
-1.079024 -1.079024 2.547373 -0.347408 -0.838717 0.419359
1.079024 -1.079024 2.547373 0.347408 -0.838717 0.419358
0.000000 0.000000 5.599314 0.347408 -0.838717 0.419358
-0.000000 -1.525971 2.547373 0.347408 -0.838717 0.419358
1.525971 -0.000000 2.547373 0.838717 -0.347408 0.419358
0.000000 0.000000 5.599314 0.838717 -0.347408 0.419358
1.079024 -1.079024 2.547373 0.838717 -0.347408 0.419358
0.000000 0.000000 5.599314 -0.347408 0.838717 0.419359
0.000000 1.525971 2.547373 -0.347408 0.838717 0.419359
-1.079024 1.079024 2.547373 -0.347408 0.838717 0.419359
1.079024 1.079024 2.547373 0.838717 0.347408 0.419358
0.000000 0.000000 5.599314 0.838717 0.347408 0.419358
1.525971 -0.000000 2.547373 0.838717 0.347408 0.419358
0.000000 1.525971 2.547373 0.000000 0.000000 -1.000000
1.079024 1.079024 2.547373 0.000000 0.000000 -1.000000
-1.079024 1.079024 2.547373 0.000000 0.000000 -1.000000
1.525971 -0.000000 2.547373 0.000000 0.000000 -1.000000
-1.525971 0.000000 2.547373 0.000000 -0.000000 -1.000000
-1.079024 -1.079024 2.547373 0.000000 0.000000 -1.000000
1.079024 -1.079024 2.547373 0.000000 0.000000 -1.000000
-0.000000 -1.525971 2.547373 0.000000 0.000000 -1.000000
3 0 1 2
3 3 4 5
3 6 7 8
3 9 10 11
3 12 13 14
3 15 16 17
3 18 19 20
3 21 22 23
3 24 25 26
3 25 27 26
3 27 28 26
3 27 29 28
3 27 30 29
3 30 31 29
